<mxfile host="app.diagrams.net" modified="2022-08-28T09:37:24.066Z" agent="5.0 (Windows NT 10.0; Win64; x64) AppleWebKit/537.36 (KHTML, like Gecko) Chrome/104.0.0.0 Safari/537.36" etag="XhYcL0Wio_MWvZWuJfz9" version="20.2.5" type="github">
  <diagram id="KioEcsuCj0JwU_afDKcz" name="Страница 1">
    <mxGraphModel dx="1865" dy="1708" grid="1" gridSize="10" guides="1" tooltips="1" connect="1" arrows="1" fold="1" page="1" pageScale="1" pageWidth="827" pageHeight="1169" math="0" shadow="0">
      <root>
        <mxCell id="0" />
        <mxCell id="1" parent="0" />
        <mxCell id="dEeaZ9QsUm1AKJYpGZG4-1" value="&lt;table style=&quot;border-spacing: 0px; border-collapse: collapse; tab-size: 8; color: rgb(14, 17, 22); font-family: -apple-system, BlinkMacSystemFont, &amp;quot;Segoe UI&amp;quot;, Helvetica, Arial, sans-serif, &amp;quot;Apple Color Emoji&amp;quot;, &amp;quot;Segoe UI Emoji&amp;quot;; font-size: 14px; background-color: rgb(255, 255, 255);&quot; data-tagsearch-path=&quot;src/pages/PedroMern/server/models/Users.js&quot; data-tagsearch-lang=&quot;JavaScript&quot; data-paste-markdown-skip=&quot;&quot; data-tab-size=&quot;8&quot; class=&quot;highlight tab-size js-file-line-container js-code-nav-container js-tagsearch-file&quot; data-hpc=&quot;&quot;&gt;&lt;tbody style=&quot;box-sizing: border-box;&quot;&gt;&lt;tr style=&quot;box-sizing: border-box;&quot;&gt;&lt;td style=&quot;box-sizing: border-box; padding: 0px 10px; position: relative; line-height: 20px; vertical-align: top; overflow: visible; font-family: ui-monospace, SFMono-Regular, &amp;quot;SF Mono&amp;quot;, Menlo, Consolas, &amp;quot;Liberation Mono&amp;quot;, monospace; font-size: 12px; color: var(--color-fg-default); overflow-wrap: normal;&quot; class=&quot;blob-code blob-code-inner js-file-line&quot; id=&quot;LC1&quot;&gt;&lt;span style=&quot;background-color: rgb(255, 51, 255);&quot;&gt;&lt;span style=&quot;box-sizing: border-box; color: var(--color-prettylights-syntax-keyword);&quot; class=&quot;pl-k&quot;&gt;import&amp;nbsp;&lt;/span&gt;&lt;span style=&quot;box-sizing: border-box;&quot; class=&quot;pl-s1&quot;&gt;mongoose&amp;nbsp;&lt;/span&gt;&lt;span style=&quot;box-sizing: border-box; color: var(--color-prettylights-syntax-keyword);&quot; class=&quot;pl-k&quot;&gt;from&amp;nbsp;&lt;/span&gt;&lt;span style=&quot;box-sizing: border-box; color: var(--color-prettylights-syntax-string);&quot; class=&quot;pl-s&quot;&gt;&quot;mongoose&quot;&lt;/span&gt;&lt;span style=&quot;box-sizing: border-box;&quot; class=&quot;pl-kos&quot;&gt;;&lt;/span&gt;&lt;/span&gt;&lt;/td&gt;&lt;/tr&gt;&lt;tr style=&quot;box-sizing: border-box; background-color: transparent;&quot;&gt;&lt;td style=&quot;box-sizing: border-box; padding: 0px 10px; position: relative; width: 50px; min-width: 50px; font-family: ui-monospace, SFMono-Regular, &amp;quot;SF Mono&amp;quot;, Menlo, Consolas, &amp;quot;Liberation Mono&amp;quot;, monospace; font-size: 12px; line-height: 20px; color: var(--color-fg-subtle); vertical-align: top; cursor: pointer; user-select: none;&quot; data-line-number=&quot;2&quot; class=&quot;blob-num js-line-number js-code-nav-line-number js-blob-rnum&quot; id=&quot;L2&quot;&gt;&lt;/td&gt;&lt;td style=&quot;box-sizing: border-box; padding: 0px 10px; position: relative; line-height: 20px; vertical-align: top; overflow: visible; font-family: ui-monospace, SFMono-Regular, &amp;quot;SF Mono&amp;quot;, Menlo, Consolas, &amp;quot;Liberation Mono&amp;quot;, monospace; font-size: 12px; color: var(--color-fg-default); overflow-wrap: normal;&quot; class=&quot;blob-code blob-code-inner js-file-line&quot; id=&quot;LC2&quot;&gt;&lt;br&gt;&lt;/td&gt;&lt;/tr&gt;&lt;tr style=&quot;box-sizing: border-box;&quot;&gt;&lt;td style=&quot;box-sizing: border-box; padding: 0px 10px; position: relative; width: 50px; min-width: 50px; font-family: ui-monospace, SFMono-Regular, &amp;quot;SF Mono&amp;quot;, Menlo, Consolas, &amp;quot;Liberation Mono&amp;quot;, monospace; font-size: 12px; line-height: 20px; color: var(--color-fg-subtle); vertical-align: top; cursor: pointer; user-select: none;&quot; data-line-number=&quot;3&quot; class=&quot;blob-num js-line-number js-code-nav-line-number js-blob-rnum&quot; id=&quot;L3&quot;&gt;&lt;/td&gt;&lt;td style=&quot;box-sizing: border-box; padding: 0px 10px; position: relative; line-height: 20px; vertical-align: top; overflow: visible; font-family: ui-monospace, SFMono-Regular, &amp;quot;SF Mono&amp;quot;, Menlo, Consolas, &amp;quot;Liberation Mono&amp;quot;, monospace; font-size: 12px; color: var(--color-fg-default); overflow-wrap: normal;&quot; class=&quot;blob-code blob-code-inner js-file-line&quot; id=&quot;LC3&quot;&gt;&lt;br&gt;&lt;/td&gt;&lt;/tr&gt;&lt;tr style=&quot;box-sizing: border-box; background-color: transparent;&quot;&gt;&lt;td style=&quot;box-sizing: border-box; padding: 0px 10px; position: relative; width: 50px; min-width: 50px; font-family: ui-monospace, SFMono-Regular, &amp;quot;SF Mono&amp;quot;, Menlo, Consolas, &amp;quot;Liberation Mono&amp;quot;, monospace; font-size: 12px; line-height: 20px; color: var(--color-fg-subtle); vertical-align: top; cursor: pointer; user-select: none;&quot; data-line-number=&quot;4&quot; class=&quot;blob-num js-line-number js-code-nav-line-number js-blob-rnum&quot; id=&quot;L4&quot;&gt;&lt;/td&gt;&lt;td style=&quot;box-sizing: border-box; padding: 0px 10px; position: relative; line-height: 20px; vertical-align: top; overflow: visible; font-family: ui-monospace, SFMono-Regular, &amp;quot;SF Mono&amp;quot;, Menlo, Consolas, &amp;quot;Liberation Mono&amp;quot;, monospace; font-size: 12px; color: var(--color-fg-default); overflow-wrap: normal;&quot; class=&quot;blob-code blob-code-inner js-file-line&quot; id=&quot;LC4&quot;&gt;&lt;span style=&quot;box-sizing: border-box; color: var(--color-prettylights-syntax-keyword);&quot; class=&quot;pl-k&quot;&gt;const&lt;/span&gt; &lt;span style=&quot;box-sizing: border-box; color: var(--color-prettylights-syntax-variable);&quot; class=&quot;pl-v&quot;&gt;UserSchema&lt;/span&gt; &lt;span style=&quot;box-sizing: border-box; color: var(--color-prettylights-syntax-constant);&quot; class=&quot;pl-c1&quot;&gt;=&lt;/span&gt; &lt;span style=&quot;box-sizing: border-box; color: var(--color-prettylights-syntax-keyword);&quot; class=&quot;pl-k&quot;&gt;new&lt;/span&gt; &lt;span style=&quot;box-sizing: border-box;&quot; class=&quot;pl-s1&quot;&gt;mongoose&lt;/span&gt;&lt;span style=&quot;box-sizing: border-box;&quot; class=&quot;pl-kos&quot;&gt;.&lt;/span&gt;&lt;span style=&quot;box-sizing: border-box; color: var(--color-prettylights-syntax-constant);&quot; class=&quot;pl-c1&quot;&gt;Schema&lt;/span&gt;&lt;span style=&quot;box-sizing: border-box;&quot; class=&quot;pl-kos&quot;&gt;(&lt;/span&gt;&lt;span style=&quot;box-sizing: border-box;&quot; class=&quot;pl-kos&quot;&gt;{&lt;/span&gt;&lt;/td&gt;&lt;/tr&gt;&lt;tr style=&quot;box-sizing: border-box;&quot;&gt;&lt;td style=&quot;box-sizing: border-box; padding: 0px 10px; position: relative; width: 50px; min-width: 50px; font-family: ui-monospace, SFMono-Regular, &amp;quot;SF Mono&amp;quot;, Menlo, Consolas, &amp;quot;Liberation Mono&amp;quot;, monospace; font-size: 12px; line-height: 20px; color: var(--color-fg-subtle); vertical-align: top; cursor: pointer; user-select: none;&quot; data-line-number=&quot;5&quot; class=&quot;blob-num js-line-number js-code-nav-line-number js-blob-rnum&quot; id=&quot;L5&quot;&gt;&lt;/td&gt;&lt;td style=&quot;box-sizing: border-box; padding: 0px 10px; position: relative; line-height: 20px; vertical-align: top; overflow: visible; font-family: ui-monospace, SFMono-Regular, &amp;quot;SF Mono&amp;quot;, Menlo, Consolas, &amp;quot;Liberation Mono&amp;quot;, monospace; font-size: 12px; color: var(--color-fg-default); overflow-wrap: normal;&quot; class=&quot;blob-code blob-code-inner js-file-line&quot; id=&quot;LC5&quot;&gt;	&lt;span style=&quot;box-sizing: border-box; color: var(--color-prettylights-syntax-constant);&quot; class=&quot;pl-c1&quot;&gt;name&lt;/span&gt;: &lt;span style=&quot;box-sizing: border-box;&quot; class=&quot;pl-kos&quot;&gt;{&lt;/span&gt;&lt;/td&gt;&lt;/tr&gt;&lt;tr style=&quot;box-sizing: border-box; background-color: transparent;&quot;&gt;&lt;td style=&quot;box-sizing: border-box; padding: 0px 10px; position: relative; width: 50px; min-width: 50px; font-family: ui-monospace, SFMono-Regular, &amp;quot;SF Mono&amp;quot;, Menlo, Consolas, &amp;quot;Liberation Mono&amp;quot;, monospace; font-size: 12px; line-height: 20px; color: var(--color-fg-subtle); vertical-align: top; cursor: pointer; user-select: none;&quot; data-line-number=&quot;6&quot; class=&quot;blob-num js-line-number js-code-nav-line-number js-blob-rnum&quot; id=&quot;L6&quot;&gt;&lt;/td&gt;&lt;td style=&quot;box-sizing: border-box; padding: 0px 10px; position: relative; line-height: 20px; vertical-align: top; overflow: visible; font-family: ui-monospace, SFMono-Regular, &amp;quot;SF Mono&amp;quot;, Menlo, Consolas, &amp;quot;Liberation Mono&amp;quot;, monospace; font-size: 12px; color: var(--color-fg-default); overflow-wrap: normal;&quot; class=&quot;blob-code blob-code-inner js-file-line&quot; id=&quot;LC6&quot;&gt;		&lt;span style=&quot;box-sizing: border-box; color: var(--color-prettylights-syntax-constant);&quot; class=&quot;pl-c1&quot;&gt;type&lt;/span&gt;: &lt;span style=&quot;box-sizing: border-box; color: var(--color-prettylights-syntax-variable);&quot; class=&quot;pl-v&quot;&gt;String&lt;/span&gt;&lt;span style=&quot;box-sizing: border-box;&quot; class=&quot;pl-kos&quot;&gt;,&lt;/span&gt;&lt;/td&gt;&lt;/tr&gt;&lt;tr style=&quot;box-sizing: border-box;&quot;&gt;&lt;td style=&quot;box-sizing: border-box; padding: 0px 10px; position: relative; width: 50px; min-width: 50px; font-family: ui-monospace, SFMono-Regular, &amp;quot;SF Mono&amp;quot;, Menlo, Consolas, &amp;quot;Liberation Mono&amp;quot;, monospace; font-size: 12px; line-height: 20px; color: var(--color-fg-subtle); vertical-align: top; cursor: pointer; user-select: none;&quot; data-line-number=&quot;7&quot; class=&quot;blob-num js-line-number js-code-nav-line-number js-blob-rnum&quot; id=&quot;L7&quot;&gt;&lt;/td&gt;&lt;td style=&quot;box-sizing: border-box; padding: 0px 10px; position: relative; line-height: 20px; vertical-align: top; overflow: visible; font-family: ui-monospace, SFMono-Regular, &amp;quot;SF Mono&amp;quot;, Menlo, Consolas, &amp;quot;Liberation Mono&amp;quot;, monospace; font-size: 12px; color: var(--color-fg-default); overflow-wrap: normal;&quot; class=&quot;blob-code blob-code-inner js-file-line&quot; id=&quot;LC7&quot;&gt;		&lt;span style=&quot;box-sizing: border-box; color: var(--color-prettylights-syntax-constant);&quot; class=&quot;pl-c1&quot;&gt;required&lt;/span&gt;: &lt;span style=&quot;box-sizing: border-box; color: var(--color-prettylights-syntax-constant);&quot; class=&quot;pl-c1&quot;&gt;true&lt;/span&gt;&lt;span style=&quot;box-sizing: border-box;&quot; class=&quot;pl-kos&quot;&gt;,&lt;/span&gt;&lt;/td&gt;&lt;/tr&gt;&lt;tr style=&quot;box-sizing: border-box; background-color: transparent;&quot;&gt;&lt;td style=&quot;box-sizing: border-box; padding: 0px 10px; position: relative; width: 50px; min-width: 50px; font-family: ui-monospace, SFMono-Regular, &amp;quot;SF Mono&amp;quot;, Menlo, Consolas, &amp;quot;Liberation Mono&amp;quot;, monospace; font-size: 12px; line-height: 20px; color: var(--color-fg-subtle); vertical-align: top; cursor: pointer; user-select: none;&quot; data-line-number=&quot;8&quot; class=&quot;blob-num js-line-number js-code-nav-line-number js-blob-rnum&quot; id=&quot;L8&quot;&gt;&lt;/td&gt;&lt;td style=&quot;box-sizing: border-box; padding: 0px 10px; position: relative; line-height: 20px; vertical-align: top; overflow: visible; font-family: ui-monospace, SFMono-Regular, &amp;quot;SF Mono&amp;quot;, Menlo, Consolas, &amp;quot;Liberation Mono&amp;quot;, monospace; font-size: 12px; color: var(--color-fg-default); overflow-wrap: normal;&quot; class=&quot;blob-code blob-code-inner js-file-line&quot; id=&quot;LC8&quot;&gt;	&lt;span style=&quot;box-sizing: border-box;&quot; class=&quot;pl-kos&quot;&gt;}&lt;/span&gt;&lt;span style=&quot;box-sizing: border-box;&quot; class=&quot;pl-kos&quot;&gt;,&lt;br&gt;&lt;br&gt;&lt;/span&gt;&lt;/td&gt;&lt;/tr&gt;&lt;tr style=&quot;box-sizing: border-box;&quot;&gt;&lt;td style=&quot;box-sizing: border-box; padding: 0px 10px; position: relative; width: 50px; min-width: 50px; font-family: ui-monospace, SFMono-Regular, &amp;quot;SF Mono&amp;quot;, Menlo, Consolas, &amp;quot;Liberation Mono&amp;quot;, monospace; font-size: 12px; line-height: 20px; color: var(--color-fg-subtle); vertical-align: top; cursor: pointer; user-select: none;&quot; data-line-number=&quot;9&quot; class=&quot;blob-num js-line-number js-code-nav-line-number js-blob-rnum&quot; id=&quot;L9&quot;&gt;&lt;/td&gt;&lt;td style=&quot;box-sizing: border-box; padding: 0px 10px; position: relative; line-height: 20px; vertical-align: top; overflow: visible; font-family: ui-monospace, SFMono-Regular, &amp;quot;SF Mono&amp;quot;, Menlo, Consolas, &amp;quot;Liberation Mono&amp;quot;, monospace; font-size: 12px; color: var(--color-fg-default); overflow-wrap: normal;&quot; class=&quot;blob-code blob-code-inner js-file-line&quot; id=&quot;LC9&quot;&gt;	&lt;span style=&quot;box-sizing: border-box; color: var(--color-prettylights-syntax-constant);&quot; class=&quot;pl-c1&quot;&gt;age&lt;/span&gt;: &lt;span style=&quot;box-sizing: border-box;&quot; class=&quot;pl-kos&quot;&gt;{&lt;/span&gt;&lt;/td&gt;&lt;/tr&gt;&lt;tr style=&quot;box-sizing: border-box; background-color: transparent;&quot;&gt;&lt;td style=&quot;box-sizing: border-box; padding: 0px 10px; position: relative; width: 50px; min-width: 50px; font-family: ui-monospace, SFMono-Regular, &amp;quot;SF Mono&amp;quot;, Menlo, Consolas, &amp;quot;Liberation Mono&amp;quot;, monospace; font-size: 12px; line-height: 20px; color: var(--color-fg-subtle); vertical-align: top; cursor: pointer; user-select: none;&quot; data-line-number=&quot;10&quot; class=&quot;blob-num js-line-number js-code-nav-line-number js-blob-rnum&quot; id=&quot;L10&quot;&gt;&lt;/td&gt;&lt;td style=&quot;box-sizing: border-box; padding: 0px 10px; position: relative; line-height: 20px; vertical-align: top; overflow: visible; font-family: ui-monospace, SFMono-Regular, &amp;quot;SF Mono&amp;quot;, Menlo, Consolas, &amp;quot;Liberation Mono&amp;quot;, monospace; font-size: 12px; color: var(--color-fg-default); overflow-wrap: normal;&quot; class=&quot;blob-code blob-code-inner js-file-line&quot; id=&quot;LC10&quot;&gt;		&lt;span style=&quot;box-sizing: border-box; color: var(--color-prettylights-syntax-constant);&quot; class=&quot;pl-c1&quot;&gt;type&lt;/span&gt;: &lt;span style=&quot;box-sizing: border-box; color: var(--color-prettylights-syntax-variable);&quot; class=&quot;pl-v&quot;&gt;Number&lt;/span&gt;&lt;span style=&quot;box-sizing: border-box;&quot; class=&quot;pl-kos&quot;&gt;,&lt;/span&gt;&lt;/td&gt;&lt;/tr&gt;&lt;tr style=&quot;box-sizing: border-box;&quot;&gt;&lt;td style=&quot;box-sizing: border-box; padding: 0px 10px; position: relative; width: 50px; min-width: 50px; font-family: ui-monospace, SFMono-Regular, &amp;quot;SF Mono&amp;quot;, Menlo, Consolas, &amp;quot;Liberation Mono&amp;quot;, monospace; font-size: 12px; line-height: 20px; color: var(--color-fg-subtle); vertical-align: top; cursor: pointer; user-select: none;&quot; data-line-number=&quot;11&quot; class=&quot;blob-num js-line-number js-code-nav-line-number js-blob-rnum&quot; id=&quot;L11&quot;&gt;&lt;/td&gt;&lt;td style=&quot;box-sizing: border-box; padding: 0px 10px; position: relative; line-height: 20px; vertical-align: top; overflow: visible; font-family: ui-monospace, SFMono-Regular, &amp;quot;SF Mono&amp;quot;, Menlo, Consolas, &amp;quot;Liberation Mono&amp;quot;, monospace; font-size: 12px; color: var(--color-fg-default); overflow-wrap: normal;&quot; class=&quot;blob-code blob-code-inner js-file-line&quot; id=&quot;LC11&quot;&gt;		&lt;span style=&quot;box-sizing: border-box; color: var(--color-prettylights-syntax-constant);&quot; class=&quot;pl-c1&quot;&gt;required&lt;/span&gt;: &lt;span style=&quot;box-sizing: border-box; color: var(--color-prettylights-syntax-constant);&quot; class=&quot;pl-c1&quot;&gt;true&lt;/span&gt;&lt;span style=&quot;box-sizing: border-box;&quot; class=&quot;pl-kos&quot;&gt;,&lt;/span&gt;&lt;/td&gt;&lt;/tr&gt;&lt;tr style=&quot;box-sizing: border-box; background-color: transparent;&quot;&gt;&lt;td style=&quot;box-sizing: border-box; padding: 0px 10px; position: relative; width: 50px; min-width: 50px; font-family: ui-monospace, SFMono-Regular, &amp;quot;SF Mono&amp;quot;, Menlo, Consolas, &amp;quot;Liberation Mono&amp;quot;, monospace; font-size: 12px; line-height: 20px; color: var(--color-fg-subtle); vertical-align: top; cursor: pointer; user-select: none;&quot; data-line-number=&quot;12&quot; class=&quot;blob-num js-line-number js-code-nav-line-number js-blob-rnum&quot; id=&quot;L12&quot;&gt;&lt;/td&gt;&lt;td style=&quot;box-sizing: border-box; padding: 0px 10px; position: relative; line-height: 20px; vertical-align: top; overflow: visible; font-family: ui-monospace, SFMono-Regular, &amp;quot;SF Mono&amp;quot;, Menlo, Consolas, &amp;quot;Liberation Mono&amp;quot;, monospace; font-size: 12px; color: var(--color-fg-default); overflow-wrap: normal;&quot; class=&quot;blob-code blob-code-inner js-file-line&quot; id=&quot;LC12&quot;&gt;	&lt;span style=&quot;box-sizing: border-box;&quot; class=&quot;pl-kos&quot;&gt;}&lt;/span&gt;&lt;span style=&quot;box-sizing: border-box;&quot; class=&quot;pl-kos&quot;&gt;,&lt;br&gt;&lt;br&gt;&lt;/span&gt;&lt;/td&gt;&lt;/tr&gt;&lt;tr style=&quot;box-sizing: border-box;&quot;&gt;&lt;td style=&quot;box-sizing: border-box; padding: 0px 10px; position: relative; width: 50px; min-width: 50px; font-family: ui-monospace, SFMono-Regular, &amp;quot;SF Mono&amp;quot;, Menlo, Consolas, &amp;quot;Liberation Mono&amp;quot;, monospace; font-size: 12px; line-height: 20px; color: var(--color-fg-subtle); vertical-align: top; cursor: pointer; user-select: none;&quot; data-line-number=&quot;13&quot; class=&quot;blob-num js-line-number js-code-nav-line-number js-blob-rnum&quot; id=&quot;L13&quot;&gt;&lt;/td&gt;&lt;td style=&quot;box-sizing: border-box; padding: 0px 10px; position: relative; line-height: 20px; vertical-align: top; overflow: visible; font-family: ui-monospace, SFMono-Regular, &amp;quot;SF Mono&amp;quot;, Menlo, Consolas, &amp;quot;Liberation Mono&amp;quot;, monospace; font-size: 12px; color: var(--color-fg-default); overflow-wrap: normal;&quot; class=&quot;blob-code blob-code-inner js-file-line&quot; id=&quot;LC13&quot;&gt;	&lt;span style=&quot;box-sizing: border-box; color: var(--color-prettylights-syntax-constant);&quot; class=&quot;pl-c1&quot;&gt;username&lt;/span&gt;: &lt;span style=&quot;box-sizing: border-box;&quot; class=&quot;pl-kos&quot;&gt;{&lt;/span&gt;&lt;/td&gt;&lt;/tr&gt;&lt;tr style=&quot;box-sizing: border-box; background-color: transparent;&quot;&gt;&lt;td style=&quot;box-sizing: border-box; padding: 0px 10px; position: relative; width: 50px; min-width: 50px; font-family: ui-monospace, SFMono-Regular, &amp;quot;SF Mono&amp;quot;, Menlo, Consolas, &amp;quot;Liberation Mono&amp;quot;, monospace; font-size: 12px; line-height: 20px; color: var(--color-fg-subtle); vertical-align: top; cursor: pointer; user-select: none;&quot; data-line-number=&quot;14&quot; class=&quot;blob-num js-line-number js-code-nav-line-number js-blob-rnum&quot; id=&quot;L14&quot;&gt;&lt;/td&gt;&lt;td style=&quot;box-sizing: border-box; padding: 0px 10px; position: relative; line-height: 20px; vertical-align: top; overflow: visible; font-family: ui-monospace, SFMono-Regular, &amp;quot;SF Mono&amp;quot;, Menlo, Consolas, &amp;quot;Liberation Mono&amp;quot;, monospace; font-size: 12px; color: var(--color-fg-default); overflow-wrap: normal;&quot; class=&quot;blob-code blob-code-inner js-file-line&quot; id=&quot;LC14&quot;&gt;		&lt;span style=&quot;box-sizing: border-box; color: var(--color-prettylights-syntax-constant);&quot; class=&quot;pl-c1&quot;&gt;type&lt;/span&gt;: &lt;span style=&quot;box-sizing: border-box; color: var(--color-prettylights-syntax-variable);&quot; class=&quot;pl-v&quot;&gt;String&lt;/span&gt;&lt;span style=&quot;box-sizing: border-box;&quot; class=&quot;pl-kos&quot;&gt;,&lt;/span&gt;&lt;/td&gt;&lt;/tr&gt;&lt;tr style=&quot;box-sizing: border-box;&quot;&gt;&lt;td style=&quot;box-sizing: border-box; padding: 0px 10px; position: relative; width: 50px; min-width: 50px; font-family: ui-monospace, SFMono-Regular, &amp;quot;SF Mono&amp;quot;, Menlo, Consolas, &amp;quot;Liberation Mono&amp;quot;, monospace; font-size: 12px; line-height: 20px; color: var(--color-fg-subtle); vertical-align: top; cursor: pointer; user-select: none;&quot; data-line-number=&quot;15&quot; class=&quot;blob-num js-line-number js-code-nav-line-number js-blob-rnum&quot; id=&quot;L15&quot;&gt;&lt;/td&gt;&lt;td style=&quot;box-sizing: border-box; padding: 0px 10px; position: relative; line-height: 20px; vertical-align: top; overflow: visible; font-family: ui-monospace, SFMono-Regular, &amp;quot;SF Mono&amp;quot;, Menlo, Consolas, &amp;quot;Liberation Mono&amp;quot;, monospace; font-size: 12px; color: var(--color-fg-default); overflow-wrap: normal;&quot; class=&quot;blob-code blob-code-inner js-file-line&quot; id=&quot;LC15&quot;&gt;		&lt;span style=&quot;box-sizing: border-box; color: var(--color-prettylights-syntax-constant);&quot; class=&quot;pl-c1&quot;&gt;required&lt;/span&gt;: &lt;span style=&quot;box-sizing: border-box; color: var(--color-prettylights-syntax-constant);&quot; class=&quot;pl-c1&quot;&gt;true&lt;/span&gt;&lt;span style=&quot;box-sizing: border-box;&quot; class=&quot;pl-kos&quot;&gt;,&lt;/span&gt;&lt;/td&gt;&lt;/tr&gt;&lt;tr style=&quot;box-sizing: border-box; background-color: transparent;&quot;&gt;&lt;td style=&quot;box-sizing: border-box; padding: 0px 10px; position: relative; width: 50px; min-width: 50px; font-family: ui-monospace, SFMono-Regular, &amp;quot;SF Mono&amp;quot;, Menlo, Consolas, &amp;quot;Liberation Mono&amp;quot;, monospace; font-size: 12px; line-height: 20px; color: var(--color-fg-subtle); vertical-align: top; cursor: pointer; user-select: none;&quot; data-line-number=&quot;16&quot; class=&quot;blob-num js-line-number js-code-nav-line-number js-blob-rnum&quot; id=&quot;L16&quot;&gt;&lt;/td&gt;&lt;td style=&quot;box-sizing: border-box; padding: 0px 10px; position: relative; line-height: 20px; vertical-align: top; overflow: visible; font-family: ui-monospace, SFMono-Regular, &amp;quot;SF Mono&amp;quot;, Menlo, Consolas, &amp;quot;Liberation Mono&amp;quot;, monospace; font-size: 12px; color: var(--color-fg-default); overflow-wrap: normal;&quot; class=&quot;blob-code blob-code-inner js-file-line&quot; id=&quot;LC16&quot;&gt;	&lt;span style=&quot;box-sizing: border-box;&quot; class=&quot;pl-kos&quot;&gt;}&lt;/span&gt;&lt;span style=&quot;box-sizing: border-box;&quot; class=&quot;pl-kos&quot;&gt;,&lt;/span&gt;&lt;/td&gt;&lt;/tr&gt;&lt;tr style=&quot;box-sizing: border-box;&quot;&gt;&lt;td style=&quot;box-sizing: border-box; padding: 0px 10px; position: relative; width: 50px; min-width: 50px; font-family: ui-monospace, SFMono-Regular, &amp;quot;SF Mono&amp;quot;, Menlo, Consolas, &amp;quot;Liberation Mono&amp;quot;, monospace; font-size: 12px; line-height: 20px; color: var(--color-fg-subtle); vertical-align: top; cursor: pointer; user-select: none;&quot; data-line-number=&quot;17&quot; class=&quot;blob-num js-line-number js-code-nav-line-number js-blob-rnum&quot; id=&quot;L17&quot;&gt;&lt;/td&gt;&lt;td style=&quot;box-sizing: border-box; padding: 0px 10px; position: relative; line-height: 20px; vertical-align: top; overflow: visible; font-family: ui-monospace, SFMono-Regular, &amp;quot;SF Mono&amp;quot;, Menlo, Consolas, &amp;quot;Liberation Mono&amp;quot;, monospace; font-size: 12px; color: var(--color-fg-default); overflow-wrap: normal;&quot; class=&quot;blob-code blob-code-inner js-file-line&quot; id=&quot;LC17&quot;&gt;&lt;span style=&quot;box-sizing: border-box;&quot; class=&quot;pl-kos&quot;&gt;}&lt;/span&gt;&lt;span style=&quot;box-sizing: border-box;&quot; class=&quot;pl-kos&quot;&gt;)&lt;/span&gt;&lt;span style=&quot;box-sizing: border-box;&quot; class=&quot;pl-kos&quot;&gt;;&lt;/span&gt;&lt;/td&gt;&lt;/tr&gt;&lt;tr style=&quot;box-sizing: border-box; background-color: transparent;&quot;&gt;&lt;td style=&quot;box-sizing: border-box; padding: 0px 10px; position: relative; width: 50px; min-width: 50px; font-family: ui-monospace, SFMono-Regular, &amp;quot;SF Mono&amp;quot;, Menlo, Consolas, &amp;quot;Liberation Mono&amp;quot;, monospace; font-size: 12px; line-height: 20px; color: var(--color-fg-subtle); vertical-align: top; cursor: pointer; user-select: none;&quot; data-line-number=&quot;18&quot; class=&quot;blob-num js-line-number js-code-nav-line-number js-blob-rnum&quot; id=&quot;L18&quot;&gt;&lt;/td&gt;&lt;td style=&quot;box-sizing: border-box; padding: 0px 10px; position: relative; line-height: 20px; vertical-align: top; overflow: visible; font-family: ui-monospace, SFMono-Regular, &amp;quot;SF Mono&amp;quot;, Menlo, Consolas, &amp;quot;Liberation Mono&amp;quot;, monospace; font-size: 12px; color: var(--color-fg-default); overflow-wrap: normal;&quot; class=&quot;blob-code blob-code-inner js-file-line&quot; id=&quot;LC18&quot;&gt;&lt;br&gt;&lt;/td&gt;&lt;/tr&gt;&lt;tr style=&quot;box-sizing: border-box;&quot;&gt;&lt;td style=&quot;box-sizing: border-box; padding: 0px 10px; position: relative; width: 50px; min-width: 50px; font-family: ui-monospace, SFMono-Regular, &amp;quot;SF Mono&amp;quot;, Menlo, Consolas, &amp;quot;Liberation Mono&amp;quot;, monospace; font-size: 12px; line-height: 20px; color: var(--color-fg-subtle); vertical-align: top; cursor: pointer; user-select: none;&quot; data-line-number=&quot;19&quot; class=&quot;blob-num js-line-number js-code-nav-line-number js-blob-rnum&quot; id=&quot;L19&quot;&gt;&lt;/td&gt;&lt;td style=&quot;box-sizing: border-box; padding: 0px 10px; position: relative; line-height: 20px; vertical-align: top; overflow: visible; font-family: ui-monospace, SFMono-Regular, &amp;quot;SF Mono&amp;quot;, Menlo, Consolas, &amp;quot;Liberation Mono&amp;quot;, monospace; font-size: 12px; color: var(--color-fg-default); overflow-wrap: normal;&quot; class=&quot;blob-code blob-code-inner js-file-line&quot; id=&quot;LC19&quot;&gt;&lt;br&gt;&lt;/td&gt;&lt;/tr&gt;&lt;tr style=&quot;box-sizing: border-box; background-color: transparent;&quot;&gt;&lt;td style=&quot;box-sizing: border-box; padding: 0px 10px; position: relative; width: 50px; min-width: 50px; font-family: ui-monospace, SFMono-Regular, &amp;quot;SF Mono&amp;quot;, Menlo, Consolas, &amp;quot;Liberation Mono&amp;quot;, monospace; font-size: 12px; line-height: 20px; color: var(--color-fg-subtle); vertical-align: top; cursor: pointer; user-select: none;&quot; data-line-number=&quot;20&quot; class=&quot;blob-num js-line-number js-code-nav-line-number js-blob-rnum&quot; id=&quot;L20&quot;&gt;&lt;/td&gt;&lt;td style=&quot;box-sizing: border-box; padding: 0px 10px; position: relative; line-height: 20px; vertical-align: top; overflow: visible; font-family: ui-monospace, SFMono-Regular, &amp;quot;SF Mono&amp;quot;, Menlo, Consolas, &amp;quot;Liberation Mono&amp;quot;, monospace; font-size: 12px; color: var(--color-fg-default); overflow-wrap: normal;&quot; class=&quot;blob-code blob-code-inner js-file-line&quot; id=&quot;LC20&quot;&gt;&lt;span style=&quot;box-sizing: border-box; color: var(--color-prettylights-syntax-keyword);&quot; class=&quot;pl-k&quot;&gt;export&lt;/span&gt; &lt;span style=&quot;box-sizing: border-box; color: var(--color-prettylights-syntax-keyword);&quot; class=&quot;pl-k&quot;&gt;const&lt;/span&gt; &lt;span style=&quot;box-sizing: border-box; color: var(--color-prettylights-syntax-variable);&quot; class=&quot;pl-v&quot;&gt;UserModel&lt;/span&gt; &lt;span style=&quot;box-sizing: border-box; color: var(--color-prettylights-syntax-constant);&quot; class=&quot;pl-c1&quot;&gt;=&lt;/span&gt; &lt;span style=&quot;box-sizing: border-box;&quot; class=&quot;pl-s1&quot;&gt;mongoose&lt;/span&gt;&lt;span style=&quot;box-sizing: border-box;&quot; class=&quot;pl-kos&quot;&gt;.&lt;/span&gt;&lt;span style=&quot;box-sizing: border-box; color: var(--color-prettylights-syntax-entity);&quot; class=&quot;pl-en&quot;&gt;model&lt;/span&gt;&lt;span style=&quot;box-sizing: border-box;&quot; class=&quot;pl-kos&quot;&gt;(&lt;/span&gt;&lt;span style=&quot;box-sizing: border-box; color: var(--color-prettylights-syntax-string);&quot; class=&quot;pl-s&quot;&gt;&quot;users&quot;&lt;/span&gt;&lt;span style=&quot;box-sizing: border-box;&quot; class=&quot;pl-kos&quot;&gt;,&lt;/span&gt; &lt;span style=&quot;box-sizing: border-box; color: var(--color-prettylights-syntax-variable);&quot; class=&quot;pl-v&quot;&gt;UserSchema&lt;/span&gt;&lt;span style=&quot;box-sizing: border-box;&quot; class=&quot;pl-kos&quot;&gt;)&lt;/span&gt;&lt;/td&gt;&lt;/tr&gt;&lt;/tbody&gt;&lt;/table&gt;" style="rounded=0;whiteSpace=wrap;html=1;align=left;" vertex="1" parent="1">
          <mxGeometry x="-70" y="-210" width="820" height="510" as="geometry" />
        </mxCell>
      </root>
    </mxGraphModel>
  </diagram>
</mxfile>
